<?xml version="1.0" encoding="UTF-8"?><svg id="a" xmlns="http://www.w3.org/2000/svg" style="fill: #f6f6f6;" viewBox="0 0 211.5 58.29"><path d="M206.08,27.08c-.1-.09-.21-.17-.33-.23-1.11-.62-2.26-.49-3.22,.18-1.14,.79-2.21,1.73-3.17,2.74-1.62,1.68-3.48,2.93-5.74,3.54-1.98,.54-3.49-.07-4.47-1.85-.38-.69-.61-1.47-.95-2.18-.57-1.22-.42-2.15,.63-3.17,2.67-2.59,5.12-5.38,6.3-9.02,.44-1.35,.79-2.76-.02-4.08-.98-1.6-2.63-2.01-4.32-1.86-4.9,.45-8.82,2.64-11.27,7-1.3,2.3-1.86,4.86-1.42,7.5,.33,1.99,.89,3.93,1.37,5.96-1.18,.71-2.32,.3-3-1.21-1.56-3.47-2.53-7.14-3.65-10.77-.55-1.78-1.28-3.52-2.93-4.64-2.63-1.78-5.3-1.31-7.11,1.29-1.16,1.67-1.56,3.63-1.92,5.57-.69,3.71-1.23,7.45-1.92,11.17-.21,1.14-.65,2.25-1.58,3.16-.21-.54-.44-1.1-.37-1.62,.34-2.62,.79-5.22,1.14-7.83,.5-3.78,.96-7.56,1.41-11.34,.13-1.06-.19-1.54-1.17-1.91-1.81-.67-3.65-1.02-5.6-.73-1.62,.24-2.81,1.2-3.14,2.63-.18,.81-.38,1.61-.58,2.41-1.19,4.82-3.08,9.33-5.96,13.39-.65,.91-1.4,1.75-2.11,2.62-.19-.24-.21-.37-.2-.5,.3-2.91,.62-5.82,.9-8.73,.23-2.31,.48-4.61,.6-6.92,.08-1.38-.62-2.44-1.87-3.04-.69-.33-1.43-.62-2.18-.73-2.06-.3-4.57,.16-5.78,2.61-.75,1.52-1.92,2.86-3.05,4.16-.68,.79-1.63,1.36-2.85,1.33,.22-1.29,.43-2.5,.64-3.71,.52-2.89,.83-5.8,.39-8.73-.31-2.06-1.11-3.9-2.67-5.35-1.51-1.4-3.5-1.09-4.39,.75-.53,1.11-.99,2.27-1.34,3.45-.72,2.39-.8,4.83-.26,7.28,.66,2.98,2.02,5.62,3.86,8.03,.16,.21,.32,.57,.25,.79-.84,2.71-1.92,5.33-3.46,7.73-.36,.57-.74,.6-1-.02-.44-1.03-.84-2.09-1.08-3.18-.91-4.03-1.76-8.07-2.62-12.11-.65-3.07-1.19-6.16-2.43-9.07-1.58-3.7-4.79-4.54-8.34-3.31-1.76,.61-2.98,2-4.09,3.45-.77,1.01-1.51,2.04-2.32,3.15-.12-.23-.2-.36-.25-.51-.66-1.96-1.48-3.84-2.82-5.45-.96-1.16-2.11-1.97-3.59-1.93-.89-.26-1.84-.4-2.85-.41-7.7-.11-15.41-.25-23.11-.12-5.49,.09-10.24,2.24-14.12,6.19-3.89,3.96-8.57,6.16-14.16,5.9-9.29-.43-18.62,1.08-27.89-.86-1.45-.3-3.13,.72-4.72,.83-1.55,.1-2.02,.78-2,2.21,.05,3.35-.01,6.7,.04,10.05,.01,.61,.26,1.7,.55,1.76,2.46,.48,4.94,.89,7.44,1.06,1.17,.08,2.37-.63,3.56-.64,7.79-.06,15.58,0,23.37-.04,4.94-.03,9.36,1.48,12.75,5,5.28,5.48,11.65,7.45,19.06,7.26,4.4-.11,7.61-1.75,9.52-5.7,2.08-4.29,4.04-8.64,6.08-12.95,1.06-2.25,2.19-4.47,3.55-7.23,.71,1.29,1.31,2.27,1.82,3.21,.55,1.9,1.1,3.81,1.63,5.72,1.21,4.34,2.33,8.72,3.59,13.04,.39,1.33,1.08,2.6,2.35,3.38,2.62,1.6,5.85,.9,7.45-1.88,1.26-2.18,2.17-4.55,3.24-6.84,.08-.18,.2-.35,.3-.51,.85,2.28,1.61,4.48,2.5,6.64,.48,1.15,1.28,2.14,2.53,2.57,2.15,.74,3.87,.24,5.4-1.52,2.05-2.38,3.06-5.32,4.23-8.15,.88-2.13,1.7-4.29,2.58-6.43,.1-.25,.42-.54,.67-.57,1.64-.16,2.88-1,3.99-2.12,.57-.57,1.12-1.17,1.78-1.86,.02,.37,.05,.59,.03,.8-.18,1.9-.4,3.79-.55,5.69-.16,1.95-.32,3.91-.35,5.86-.05,2.5,1.01,4.45,3.16,5.79,1.42,.88,2.84,1.77,4.61,1.35,1.52-.36,2.53-1.48,3.29-2.72,1.86-3.04,3.59-6.15,5.37-9.24,.19-.33,.32-.7,.5-1.04,.17-.33,.35-.66,.53-.99,.13,.2,.14,.34,.12,.47-.5,3.4-.46,6.77,.51,10.09,.21,.73,.45,1.46,1.29,1.78,1.68,.66,3.43,.82,5.2,.82,1.08,0,2.13-.21,2.79-1.14,.47-.66,.95-1.4,1.14-2.17,.65-2.67,1.15-5.39,1.78-8.06,.22-.92,.62-1.81,1.05-2.65,.29-.58,.85-.54,1.17,0,.34,.55,.57,1.18,.8,1.79,1.07,2.91,2,5.88,3.22,8.72,1.04,2.42,3.19,3.49,5.25,2.79,1.47-.5,2.89-1.21,4.21-2.01,1.31-.8,2.48-1.84,3.61-2.7,.94,.75,1.78,1.6,2.78,2.19,2.54,1.52,5.38,2,8.29,1.73,1.45-.14,2.95-.51,4.28-1.11,2.47-1.1,4.35-3.02,6.07-5.07,.74-.88,1.44-1.79,2.24-2.61,.46-.48,1.09-.8,1.64-1.19-.08-.14-.1-.22-.16-.27Zm-100.39,5.8c-.37,1.07-.99,1.12-1.72,.24-1.12-1.35-1.61-3-2.04-4.64-.62-2.37-1.16-4.76-1.66-7.16-.37-1.78-.66-3.58-.94-5.37-.38-2.4,.89-4.1,2.51-5.61,.1-.09,.59,.01,.65,.14,.48,1.07,1,2.15,1.32,3.27,.87,3.07,1.65,6.16,2.45,9.25,.33,1.28,.65,2.56,.96,3.85,.04,.16,.05,.32,.07,.48l.11,.05c-.57,1.84-1.08,3.69-1.72,5.51Zm18.24-15.85c-.04,1.23-.16,2.46-.25,3.69-1.29-.75-2.1-1.74-2.39-2.98-.39-1.65-.67-3.34-.8-5.03-.07-.85,.18-1.76,.48-2.58,.16-.43,.67-.92,1.11-1.03,.56-.13,.86,.45,1.03,.97,.72,2.26,.9,4.6,.83,6.95Zm66.5-2.73c.77-.92,1.59-1.18,2.53-.84,.66,.24,.93,.67,.83,1.39-.42,3.08-1.92,5.63-3.87,7.96-.71,.84-1.43,1.67-2.26,2.64-.25-4.16,.06-7.96,2.76-11.16Zm-53.76-2.24c1.93,.09,3.58-.6,4.63-2.31,.73-1.17,.96-2.45,.33-3.77-.22-.46-1.64-1.97-2.16-1.71l-2.32-.53c-.69,.11-1.38,.17-2.03,.33-2.69,.69-3.27,3.1-2.43,5.27,.68,1.75,2.14,2.64,3.98,2.73Z"/><g><path d="M132.87,53.11c-.63-.36-1.13-.87-1.49-1.52s-.55-1.39-.55-2.21,.18-1.56,.55-2.21c.36-.65,.86-1.16,1.49-1.52,.63-.36,1.34-.55,2.11-.55s1.49,.18,2.12,.55c.63,.36,1.13,.87,1.49,1.52,.36,.65,.54,1.39,.54,2.21s-.18,1.56-.54,2.21c-.36,.65-.86,1.16-1.49,1.52s-1.34,.55-2.12,.55-1.48-.18-2.11-.55Zm3.79-.62c.5-.29,.89-.7,1.18-1.24,.29-.54,.43-1.17,.43-1.88s-.14-1.34-.43-1.87c-.29-.54-.68-.95-1.18-1.24s-1.06-.43-1.68-.43-1.18,.14-1.68,.43-.89,.7-1.18,1.24c-.29,.54-.43,1.16-.43,1.87s.14,1.34,.43,1.88c.29,.54,.68,.95,1.18,1.24s1.06,.43,1.68,.43,1.18-.14,1.68-.43Z"/><path d="M150.6,53.58h-.84l-4.64-7.06v7.06h-.84v-8.39h.84l4.64,7.04v-7.04h.84v8.39Z"/><path d="M156.94,45.87v3.13h3.18v.7h-3.18v3.18h3.54v.7h-4.38v-8.4h4.38v.7h-3.54Z"/><path d="M173.47,52.89h3.01v.68h-3.85v-8.39h.84v7.7Z"/><path d="M182.12,45.19v8.39h-.84v-8.39h.84Z"/><path d="M192.16,45.19v.7h-3.7v3.13h3.12v.7h-3.12v3.86h-.84v-8.39h4.54Z"/><path d="M197.98,45.87v3.13h3.18v.7h-3.18v3.18h3.54v.7h-4.38v-8.4h4.38v.7h-3.54Z"/></g></svg>